<svg xmlns="http://www.w3.org/2000/svg" viewBox="0 0 500 500">
  <path d="M294 31.4c-.5.5-1.8 3.7-3 7.1-3 8.7-3.8 9.3-13.5 12-5.8 1.6-7.3 2.6-7.3 5.3 0 2.7 3 4.8 9.1 6.7 3.3 1 6.5 2.2 7.4 2.8 1 .7 2.2 3.2 3.7 7.9 2.1 7 3.4 9 5.4 9 2.5 0 4.1-2.1 6-7.8 2.3-7.6 4.1-9.4 12-11.9 8-2.5 9.2-3.2 9.2-6.1 0-2.9-.6-3.4-6.6-5.2-10.8-3.3-11-3.6-14-12.5a29 29 0 0 0-2.9-7c-1.2-1.4-4.5-1.6-5.5-.3ZM120.4 74.3a25.6 25.6 0 0 0-12.4 8.9c-1.3 2.1-1.3 2.4-.2 3.1.6.5 3.5 1 6.4 1.3 3.3.2 6.4 1 8.4 1.9 3.2 1.5 7.9 5.6 7.9 6.8 0 .3-1.3 1-3 1.4a147 147 0 0 0-51.2 25.8 178.4 178.4 0 0 0-22.6 23.4 120.5 120.5 0 0 0-22.2 50.8c-2.1 11.5-1.6 39.6.8 48 .3 1-.3 1.5-2.3 2.3-7 2.9-12.7 8.7-14.4 16.4a59.9 59.9 0 0 0 1 31.6c5.1 19.4 24 34.7 36.5 36.7l5 .3 2.6 6.3c12.7 30.2 32.7 58 56.5 78.2 54 46.2 122.5 63 188.8 46.3a222.8 222.8 0 0 0 89.8-46.8 215 215 0 0 0 67.7-110 201.8 201.8 0 0 0-11.6-134.2 172 172 0 0 0-27.3-43.4c-6.4-7.6-10.9-10.5-14-9.1-3.8 1.7-4 7.2-.6 18 5.5 17.7 7 28.4 6.4 48.2a184.3 184.3 0 0 1-75 144l-5.6 4.3-4.2-3.5a70.3 70.3 0 0 0-36.7-13.4c-3.7-.2-6.8-.5-6.8-.6l4.5-6.8a100.1 100.1 0 0 0 18.8-69.2c-1-8-1-9 0-10.8 3-5.9 3.8-15.4 2-24-2.7-13-10-21.2-22.4-24.9l-3.6-1-3.2-8c-12.6-31-34-54.5-61.7-67.6a116.5 116.5 0 0 0-52.8-12.1l-9.7-.1-2.2-3.2C148.4 75.9 134 70 120.4 74.3Zm15.6 47.4c0 9.4-5.3 20.2-13.5 27.3-5 4.4-5 5.7.5 5.7a43.8 43.8 0 0 0 42.2-35.7c0-2 .8-1.7 2.9 1.2a18 18 0 0 1 3.6 12.5c0 9.7-5.1 18.8-14 25.6-1.8 1.3-2.3 2.2-2 3 .5 1 1.2 1.2 6.6.8A37.3 37.3 0 0 0 189 150c7.2-8.2 11.3-21.8 8.8-30.2a9 9 0 0 1-.4-2.6 97.4 97.4 0 0 1 45 26 107 107 0 0 1 27.1 44.2c2.9 8.2 3 8.4 8.3 13.9 8.8 9 12.3 15.6 15.2 28.8 1.5 6.4 1.4 27.5-.2 34.6-6.8 31-29.2 59.2-58 72.8-39.1 18.4-88.6 18.7-121.3.5-11-6-22.2-15.2-31.1-25.3-2.7-3-5.4-5.8-6.1-6.2-1-.4-2 .3-5 3.2-4.3 4.4-7.4 5.6-13 5.2-8-.5-16.5-7.3-21.5-17a36 36 0 0 1-5-20.7c.3-8.5 2-10.3 6.7-12.6 3.9-2 12.6-2.3 16.7-.8 1.8.7 3.4 1 3.6.8.2-.2-1-3.6-2.5-7.5a68.6 68.6 0 0 1-6.4-25 107.4 107.4 0 0 1 19-69.5c5.9-9 18-21.2 27-27.5a134.1 134.1 0 0 1 39.7-18c.2 0 .4 2 .4 4.7Zm169.1 217c3.4 1 8 2.7 10.3 4 4.8 2.5 5 2.1-4 7a186.3 186.3 0 0 1-122.6 18.4c-.5-.2 2.6-.8 7-1.3a157 157 0 0 0 31.7-7.5c6.1-2.3 23.2-10.6 37-18 7.8-4.3 11.7-5 24-4.7 8.7.2 11.4.5 16.6 2Z"/>
  <path d="M247 218.5a12 12 0 0 0-1.9 3.6c-2.1 6.8-7 9.7-15.7 9.7a18 18 0 0 1-11.7-3.7c-3.3-2.2-4.6-2.3-6.5-.3-3.3 3.6-2.2 7.1 3.2 11.1 5.3 3.9 10.7 5 16.2 5.4 13.2 1 23.8-7.3 24.7-20.2.3-4.2.3-4.6-1.3-5.7-2.1-1.4-5.7-1.4-7 0Zm-85.5 25a16 16 0 0 0-1.8 2.7s-1.2 2-2.7 4c-3.7 4.6-9.9 8-16.2 8.2-2.6.2-5 .3-9.5-1.6-2.5-1.2-4.7-3.2-5.6-3.2-2.2 0-6.3 4.4-6.3 6.6 0 3 6.8 8.3 13 9.9 11 2.8 22-.4 31-9.4 5.2-5 6.7-9.5 6.9-13 .1-3.4-1.5-5.3-4.8-6-1.8-.4-2.4-.1-4 1.8Zm65.4 31c-.6.5-1.8 2.2-2.7 3.7a26.1 26.1 0 0 1-17.6 13.5c-6 1.3-11.2.1-14.7-1.2-6.1-2.4-7.8-2.7-9.7-1.7a7.8 7.8 0 0 0-3.8 6.4c0 2.1 3.5 4.8 8.3 7.1a39 39 0 0 0 25.2.9 37.7 37.7 0 0 0 22-17.9c2-4.3 1.4-6.7-1.8-9.5-2.6-2.3-3.6-2.5-5.2-1.3ZM334 102.3a23 23 0 0 0-2.4 4.7l-2 4.7c-1.2 1.7-4.1 3.2-8.1 4.2-3.5.8-5.2 2.2-5.2 4.3 0 2 1.6 3.2 6.8 5.2 5.4 2 6.2 2.8 8 8.8 1.1 4.1 2.6 6 4.7 6 1.5 0 3-2 4.3-6.4 1.6-5 3.7-7 9-8.7 5-1.6 6.4-2.5 6.4-4.3 0-1.7-2.4-3.5-5.4-4.1-.9-.2-3-1-4.6-1.8-3.2-1.5-4-2.6-5.5-8.5-1-3.4-2.6-5.6-4-5.6-.5 0-1.3.6-2 1.5Z"/>
</svg>
